<svg width="143" height="24" viewBox="0 0 143 24" fill="none" xmlns="http://www.w3.org/2000/svg">
<path d="M2.54768 23.4488H0V0.669223L2.54768 0.090332V23.4488ZM9.9154 6.94115L11.9161 8.43447L6.67022 15.0124L12.7347 22.291L10.734 23.8728L3.67101 15.1341L9.9154 6.94115Z" fill="black"/>
<path d="M20.402 14.1633H23.5847V12.8544C23.5847 10.325 22.4614 9.32203 20.3395 9.32203C18.8528 9.32203 17.1862 9.77925 15.8829 10.3876L15.123 8.59197C16.7309 7.67754 18.6692 7.13184 20.3983 7.13184C24.1868 7.13184 26.037 8.96069 26.037 12.9797V23.4551H24.1574L23.8527 21.6889C22.2778 22.9684 20.2441 23.6984 18.6362 23.6984C15.8169 23.6984 14.1172 21.9913 14.1172 19.13C14.1172 15.8705 16.3014 14.167 20.3946 14.167L20.402 14.1633ZM23.5884 19.7974V15.959H20.7397C17.8579 15.959 16.5547 16.9324 16.5547 19.0046C16.5547 20.6786 17.4651 21.6225 19.1024 21.6225C20.5892 21.6225 22.5275 20.8298 23.5884 19.7937V19.7974Z" fill="black"/>
<path d="M33.1375 23.4488H30.5898V0.669223L33.1375 0.090332V23.4488ZM40.5052 6.94115L42.5059 8.43447L37.2601 15.0124L43.3246 22.291L41.3239 23.8728L34.2609 15.1341L40.5052 6.94115Z" fill="black"/>
<path d="M50.9918 14.1633H54.1746V12.8544C54.1746 10.325 53.0512 9.32203 50.9294 9.32203C49.4426 9.32203 47.776 9.77925 46.4728 10.3876L45.7129 8.59197C47.3208 7.67754 49.2591 7.13184 50.9881 7.13184C54.7766 7.13184 56.6268 8.96069 56.6268 12.9797V23.4551H54.7472L54.4425 21.6889C52.8677 22.9684 50.8339 23.6984 49.226 23.6984C46.4067 23.6984 44.707 21.9913 44.707 19.13C44.707 15.8705 46.8913 14.167 50.9845 14.167L50.9918 14.1633ZM54.1782 19.7974V15.959H51.3295C48.4478 15.959 47.1446 16.9324 47.1446 19.0046C47.1446 20.6786 48.055 21.6225 49.6923 21.6225C51.179 21.6225 53.1173 20.8298 54.1782 19.7937V19.7974Z" fill="black"/>
<path d="M74.4617 15.4691C74.4617 20.7971 71.8222 23.7543 67.3656 23.7543C62.909 23.7543 60.2695 20.8008 60.2695 15.4691C60.2695 10.1374 62.9677 7.125 67.3656 7.125C71.7635 7.125 74.4617 10.1079 74.4617 15.4691ZM62.909 15.4691C62.909 19.5214 64.5463 21.6526 67.3656 21.6526C70.1849 21.6526 71.8222 19.5214 71.8222 15.4691C71.8222 11.4169 70.1849 9.22671 67.3656 9.22671C64.5463 9.22671 62.909 11.4206 62.909 15.4691Z" fill="black"/>
<path d="M78.25 22.9639V0.730066L82.3138 0V7.94961C83.283 7.34122 84.5568 6.91351 85.9518 6.91351C90.2579 6.91351 92.2586 9.86695 92.2586 15.0143C92.2586 20.5857 89.2263 23.9078 84.1934 23.9078C81.8586 23.9078 79.3733 23.4506 78.25 22.9639ZM82.3138 10.5675V20.7405C82.9489 20.8327 83.3747 20.8327 83.7675 20.8327C86.3152 20.8327 88.1324 19.2177 88.1324 15.1065C88.1324 12.0018 87.3725 10.2025 84.4944 10.2025C83.584 10.2025 82.7947 10.4163 82.3101 10.5675H82.3138Z" fill="black"/>
<path d="M100.836 13.6723H103.384V13.1229C103.384 11.3567 102.837 10.3501 100.443 10.3501C98.9566 10.3501 97.5947 10.6561 96.1373 11.4157L95.0139 8.61343C96.5594 7.54782 98.8355 6.90625 100.928 6.90625C105.021 6.90625 107.172 8.91578 107.172 13.0897V23.4434H104.324L103.868 22.0717C102.231 23.3512 100.473 23.8674 99.0484 23.8674C95.9244 23.8674 94.1953 22.009 94.1953 18.8122C94.1953 15.4311 96.5007 13.6649 100.836 13.6649V13.6723ZM103.384 19.4317V16.2939H101.2C99.0153 16.2939 97.8626 17.1751 97.8626 18.7901C97.8626 19.9479 98.5308 20.7074 99.8634 20.7074C101.196 20.7074 102.653 20.0696 103.38 19.428L103.384 19.4317Z" fill="black"/>
<path d="M110.812 7.3998H113.694L114.3 9.01479C115.724 7.73533 117.696 6.91309 119.395 6.91309C122.975 6.91309 124.762 9.13647 124.762 13.1555V23.4502H120.699V13.0338C120.699 11.2382 120.03 10.4749 117.879 10.4749C117.031 10.4749 115.816 10.7183 114.876 11.0833V23.4465H110.812V7.3998Z" fill="black"/>
<path d="M136.702 14.9221L142.22 21.5628L139.158 24L132.458 15.748V23.4543H128.395V0.730066L132.458 0V14.7709L138.582 6.42679L141.614 8.558L136.702 14.9221Z" fill="black"/>
</svg>
